<mxfile host="app.diagrams.net" modified="2021-01-30T17:27:59.160Z" agent="5.0 (X11)" etag="yq7w0O_0svHNnvP1l7KU" version="14.2.9" type="github" pages="2">
  <diagram id="Q8UlrpxTAa6PhzOdU1Pp" name="Page-1">
    <mxGraphModel dx="1422" dy="799" grid="0" gridSize="10" guides="1" tooltips="1" connect="1" arrows="1" fold="1" page="0" pageScale="1" pageWidth="1600" pageHeight="1200" math="0" shadow="0">
      <root>
        <mxCell id="0" />
        <mxCell id="1" parent="0" />
        <mxCell id="6F9EUwDVZOpL8d00740o-1" value="&lt;font style=&quot;font-size: 27px&quot;&gt;Drone&lt;/font&gt;" style="ellipse;whiteSpace=wrap;html=1;" vertex="1" parent="1">
          <mxGeometry x="690" y="420" width="120" height="80" as="geometry" />
        </mxCell>
        <mxCell id="6F9EUwDVZOpL8d00740o-2" value="&lt;font style=&quot;font-size: 28px&quot;&gt;Frame&lt;/font&gt;" style="rounded=1;whiteSpace=wrap;html=1;" vertex="1" parent="1">
          <mxGeometry x="900" y="240" width="180" height="100" as="geometry" />
        </mxCell>
        <mxCell id="6F9EUwDVZOpL8d00740o-3" value="3D Design &amp;amp; 3D printing" style="whiteSpace=wrap;html=1;aspect=fixed;" vertex="1" parent="1">
          <mxGeometry x="1160" y="150" width="80" height="80" as="geometry" />
        </mxCell>
        <mxCell id="6F9EUwDVZOpL8d00740o-4" value="&lt;font style=&quot;font-size: 19px&quot;&gt;Brushless DC motor&lt;/font&gt;" style="rounded=1;whiteSpace=wrap;html=1;" vertex="1" parent="1">
          <mxGeometry x="1040" y="420" width="180" height="100" as="geometry" />
        </mxCell>
        <mxCell id="6F9EUwDVZOpL8d00740o-5" value="&lt;font style=&quot;font-size: 29px&quot;&gt;Propellers&lt;/font&gt;" style="rounded=1;whiteSpace=wrap;html=1;" vertex="1" parent="1">
          <mxGeometry x="880" y="590" width="180" height="100" as="geometry" />
        </mxCell>
        <mxCell id="6F9EUwDVZOpL8d00740o-6" value="3 Phase Motor" style="whiteSpace=wrap;html=1;aspect=fixed;" vertex="1" parent="1">
          <mxGeometry x="1270" y="310" width="80" height="80" as="geometry" />
        </mxCell>
        <mxCell id="6F9EUwDVZOpL8d00740o-7" value="Amount - 4" style="whiteSpace=wrap;html=1;aspect=fixed;" vertex="1" parent="1">
          <mxGeometry x="1280" y="540" width="80" height="80" as="geometry" />
        </mxCell>
        <mxCell id="6F9EUwDVZOpL8d00740o-8" value="&lt;font style=&quot;font-size: 20px&quot;&gt;Flight Controller&lt;/font&gt;" style="rounded=1;whiteSpace=wrap;html=1;" vertex="1" parent="1">
          <mxGeometry x="310" y="420" width="180" height="100" as="geometry" />
        </mxCell>
        <mxCell id="6F9EUwDVZOpL8d00740o-9" value="Amount - 4" style="whiteSpace=wrap;html=1;aspect=fixed;" vertex="1" parent="1">
          <mxGeometry x="940" y="730" width="80" height="80" as="geometry" />
        </mxCell>
        <mxCell id="6F9EUwDVZOpL8d00740o-10" value="&lt;font style=&quot;font-size: 18px&quot;&gt;ESP (Electronic Speed Controller)&lt;/font&gt;" style="rounded=1;whiteSpace=wrap;html=1;" vertex="1" parent="1">
          <mxGeometry x="460" y="590" width="180" height="100" as="geometry" />
        </mxCell>
        <mxCell id="6F9EUwDVZOpL8d00740o-11" value="&lt;div style=&quot;font-size: 20px&quot;&gt;&lt;font style=&quot;font-size: 20px&quot;&gt;Radio Reciver &amp;amp; Transmitter&lt;/font&gt;&lt;/div&gt;" style="rounded=1;whiteSpace=wrap;html=1;" vertex="1" parent="1">
          <mxGeometry x="390" y="240" width="180" height="100" as="geometry" />
        </mxCell>
        <mxCell id="6F9EUwDVZOpL8d00740o-12" value="Amount - 4" style="whiteSpace=wrap;html=1;aspect=fixed;" vertex="1" parent="1">
          <mxGeometry x="410" y="750" width="80" height="80" as="geometry" />
        </mxCell>
        <mxCell id="6F9EUwDVZOpL8d00740o-13" value="&lt;font style=&quot;font-size: 14px&quot;&gt;Connected with motor + Flight controller+ Battery&lt;/font&gt;" style="whiteSpace=wrap;html=1;aspect=fixed;" vertex="1" parent="1">
          <mxGeometry x="630" y="750" width="100" height="100" as="geometry" />
        </mxCell>
        <mxCell id="6F9EUwDVZOpL8d00740o-14" value="&lt;font style=&quot;font-size: 15px&quot;&gt;All sensors are embeded&lt;/font&gt;" style="whiteSpace=wrap;html=1;aspect=fixed;" vertex="1" parent="1">
          <mxGeometry x="190" y="280" width="80" height="80" as="geometry" />
        </mxCell>
        <mxCell id="6F9EUwDVZOpL8d00740o-15" value="&lt;font style=&quot;font-size: 15px&quot;&gt;Connected with remote via Radio Reciver&lt;/font&gt;" style="whiteSpace=wrap;html=1;aspect=fixed;" vertex="1" parent="1">
          <mxGeometry x="140" y="430" width="80" height="80" as="geometry" />
        </mxCell>
        <mxCell id="6F9EUwDVZOpL8d00740o-16" value="&lt;font style=&quot;font-size: 15px&quot;&gt;Connected with motor via ESP&lt;/font&gt;" style="whiteSpace=wrap;html=1;aspect=fixed;" vertex="1" parent="1">
          <mxGeometry x="190" y="560" width="80" height="80" as="geometry" />
        </mxCell>
        <mxCell id="6F9EUwDVZOpL8d00740o-17" value="&lt;font style=&quot;font-size: 20px&quot;&gt;Battery &amp;amp; Charger&lt;/font&gt;" style="rounded=1;whiteSpace=wrap;html=1;" vertex="1" parent="1">
          <mxGeometry x="660" y="180" width="180" height="100" as="geometry" />
        </mxCell>
        <mxCell id="6F9EUwDVZOpL8d00740o-18" value="" style="endArrow=classic;html=1;exitX=0.5;exitY=0;exitDx=0;exitDy=0;entryX=0.5;entryY=1;entryDx=0;entryDy=0;" edge="1" parent="1" source="6F9EUwDVZOpL8d00740o-1" target="6F9EUwDVZOpL8d00740o-17">
          <mxGeometry width="50" height="50" relative="1" as="geometry">
            <mxPoint x="730" y="560" as="sourcePoint" />
            <mxPoint x="740" y="320" as="targetPoint" />
          </mxGeometry>
        </mxCell>
        <mxCell id="6F9EUwDVZOpL8d00740o-21" value="" style="endArrow=classic;html=1;exitX=0;exitY=0.5;exitDx=0;exitDy=0;entryX=1.017;entryY=0.41;entryDx=0;entryDy=0;entryPerimeter=0;" edge="1" parent="1" source="6F9EUwDVZOpL8d00740o-1" target="6F9EUwDVZOpL8d00740o-8">
          <mxGeometry width="50" height="50" relative="1" as="geometry">
            <mxPoint x="730" y="560" as="sourcePoint" />
            <mxPoint x="780" y="510" as="targetPoint" />
          </mxGeometry>
        </mxCell>
        <mxCell id="6F9EUwDVZOpL8d00740o-22" value="" style="endArrow=classic;html=1;exitX=1;exitY=0.5;exitDx=0;exitDy=0;entryX=-0.017;entryY=0.41;entryDx=0;entryDy=0;entryPerimeter=0;" edge="1" parent="1" source="6F9EUwDVZOpL8d00740o-1" target="6F9EUwDVZOpL8d00740o-4">
          <mxGeometry width="50" height="50" relative="1" as="geometry">
            <mxPoint x="730" y="560" as="sourcePoint" />
            <mxPoint x="1030" y="460" as="targetPoint" />
          </mxGeometry>
        </mxCell>
        <mxCell id="6F9EUwDVZOpL8d00740o-23" value="" style="endArrow=classic;html=1;exitX=0;exitY=1;exitDx=0;exitDy=0;entryX=1;entryY=0;entryDx=0;entryDy=0;" edge="1" parent="1" source="6F9EUwDVZOpL8d00740o-1" target="6F9EUwDVZOpL8d00740o-10">
          <mxGeometry width="50" height="50" relative="1" as="geometry">
            <mxPoint x="730" y="560" as="sourcePoint" />
            <mxPoint x="780" y="510" as="targetPoint" />
          </mxGeometry>
        </mxCell>
        <mxCell id="6F9EUwDVZOpL8d00740o-24" value="" style="endArrow=classic;html=1;exitX=1;exitY=1;exitDx=0;exitDy=0;entryX=0;entryY=0;entryDx=0;entryDy=0;" edge="1" parent="1" source="6F9EUwDVZOpL8d00740o-1" target="6F9EUwDVZOpL8d00740o-5">
          <mxGeometry width="50" height="50" relative="1" as="geometry">
            <mxPoint x="730" y="560" as="sourcePoint" />
            <mxPoint x="780" y="510" as="targetPoint" />
          </mxGeometry>
        </mxCell>
        <mxCell id="6F9EUwDVZOpL8d00740o-25" value="" style="endArrow=classic;html=1;exitX=0;exitY=0;exitDx=0;exitDy=0;entryX=1;entryY=1;entryDx=0;entryDy=0;" edge="1" parent="1" source="6F9EUwDVZOpL8d00740o-1" target="6F9EUwDVZOpL8d00740o-11">
          <mxGeometry width="50" height="50" relative="1" as="geometry">
            <mxPoint x="730" y="560" as="sourcePoint" />
            <mxPoint x="780" y="510" as="targetPoint" />
          </mxGeometry>
        </mxCell>
        <mxCell id="6F9EUwDVZOpL8d00740o-26" value="" style="endArrow=classic;html=1;exitX=1;exitY=0;exitDx=0;exitDy=0;entryX=0;entryY=1;entryDx=0;entryDy=0;" edge="1" parent="1" source="6F9EUwDVZOpL8d00740o-1" target="6F9EUwDVZOpL8d00740o-2">
          <mxGeometry width="50" height="50" relative="1" as="geometry">
            <mxPoint x="730" y="560" as="sourcePoint" />
            <mxPoint x="780" y="510" as="targetPoint" />
          </mxGeometry>
        </mxCell>
        <mxCell id="6F9EUwDVZOpL8d00740o-27" value="" style="endArrow=classic;html=1;exitX=1;exitY=0;exitDx=0;exitDy=0;entryX=0;entryY=1;entryDx=0;entryDy=0;" edge="1" parent="1" source="6F9EUwDVZOpL8d00740o-2" target="6F9EUwDVZOpL8d00740o-3">
          <mxGeometry width="50" height="50" relative="1" as="geometry">
            <mxPoint x="730" y="560" as="sourcePoint" />
            <mxPoint x="780" y="510" as="targetPoint" />
          </mxGeometry>
        </mxCell>
        <mxCell id="6F9EUwDVZOpL8d00740o-28" value="" style="endArrow=classic;html=1;exitX=1;exitY=0;exitDx=0;exitDy=0;entryX=0;entryY=1;entryDx=0;entryDy=0;" edge="1" parent="1" source="6F9EUwDVZOpL8d00740o-4" target="6F9EUwDVZOpL8d00740o-6">
          <mxGeometry width="50" height="50" relative="1" as="geometry">
            <mxPoint x="730" y="560" as="sourcePoint" />
            <mxPoint x="780" y="510" as="targetPoint" />
          </mxGeometry>
        </mxCell>
        <mxCell id="6F9EUwDVZOpL8d00740o-30" value="" style="endArrow=classic;html=1;exitX=1;exitY=1;exitDx=0;exitDy=0;entryX=0;entryY=0;entryDx=0;entryDy=0;" edge="1" parent="1" source="6F9EUwDVZOpL8d00740o-4" target="6F9EUwDVZOpL8d00740o-7">
          <mxGeometry width="50" height="50" relative="1" as="geometry">
            <mxPoint x="730" y="560" as="sourcePoint" />
            <mxPoint x="780" y="510" as="targetPoint" />
          </mxGeometry>
        </mxCell>
        <mxCell id="6F9EUwDVZOpL8d00740o-31" value="" style="endArrow=classic;html=1;exitX=0.544;exitY=1.01;exitDx=0;exitDy=0;exitPerimeter=0;" edge="1" parent="1" source="6F9EUwDVZOpL8d00740o-5">
          <mxGeometry width="50" height="50" relative="1" as="geometry">
            <mxPoint x="730" y="560" as="sourcePoint" />
            <mxPoint x="978" y="730" as="targetPoint" />
          </mxGeometry>
        </mxCell>
        <mxCell id="6F9EUwDVZOpL8d00740o-32" value="" style="endArrow=classic;html=1;exitX=1;exitY=1;exitDx=0;exitDy=0;entryX=0.413;entryY=0;entryDx=0;entryDy=0;entryPerimeter=0;" edge="1" parent="1" source="6F9EUwDVZOpL8d00740o-10" target="6F9EUwDVZOpL8d00740o-13">
          <mxGeometry width="50" height="50" relative="1" as="geometry">
            <mxPoint x="730" y="560" as="sourcePoint" />
            <mxPoint x="780" y="510" as="targetPoint" />
          </mxGeometry>
        </mxCell>
        <mxCell id="6F9EUwDVZOpL8d00740o-33" value="" style="endArrow=classic;html=1;exitX=0.056;exitY=1;exitDx=0;exitDy=0;exitPerimeter=0;entryX=0.5;entryY=0;entryDx=0;entryDy=0;" edge="1" parent="1" source="6F9EUwDVZOpL8d00740o-10" target="6F9EUwDVZOpL8d00740o-12">
          <mxGeometry width="50" height="50" relative="1" as="geometry">
            <mxPoint x="730" y="560" as="sourcePoint" />
            <mxPoint x="780" y="510" as="targetPoint" />
          </mxGeometry>
        </mxCell>
        <mxCell id="6F9EUwDVZOpL8d00740o-34" value="" style="endArrow=classic;html=1;exitX=0;exitY=0.5;exitDx=0;exitDy=0;entryX=1.05;entryY=0.588;entryDx=0;entryDy=0;entryPerimeter=0;" edge="1" parent="1" source="6F9EUwDVZOpL8d00740o-8">
          <mxGeometry width="50" height="50" relative="1" as="geometry">
            <mxPoint x="730" y="560" as="sourcePoint" />
            <mxPoint x="224" y="467.03999999999996" as="targetPoint" />
          </mxGeometry>
        </mxCell>
        <mxCell id="6F9EUwDVZOpL8d00740o-35" value="" style="endArrow=classic;html=1;exitX=0;exitY=1;exitDx=0;exitDy=0;entryX=1;entryY=0;entryDx=0;entryDy=0;" edge="1" parent="1" source="6F9EUwDVZOpL8d00740o-8" target="6F9EUwDVZOpL8d00740o-16">
          <mxGeometry width="50" height="50" relative="1" as="geometry">
            <mxPoint x="730" y="560" as="sourcePoint" />
            <mxPoint x="780" y="510" as="targetPoint" />
          </mxGeometry>
        </mxCell>
        <mxCell id="6F9EUwDVZOpL8d00740o-36" value="" style="endArrow=classic;html=1;entryX=1;entryY=1;entryDx=0;entryDy=0;" edge="1" parent="1" source="6F9EUwDVZOpL8d00740o-8" target="6F9EUwDVZOpL8d00740o-14">
          <mxGeometry width="50" height="50" relative="1" as="geometry">
            <mxPoint x="730" y="560" as="sourcePoint" />
            <mxPoint x="780" y="510" as="targetPoint" />
          </mxGeometry>
        </mxCell>
      </root>
    </mxGraphModel>
  </diagram>
  <diagram id="21u_xTM9q6hQ2Z6SL6It" name="Page-2">
    <mxGraphModel dx="1422" dy="799" grid="1" gridSize="10" guides="1" tooltips="1" connect="1" arrows="1" fold="1" page="1" pageScale="1" pageWidth="1600" pageHeight="1200" math="0" shadow="0">
      <root>
        <mxCell id="c1tlYQ7k55od8m6h_Xid-0" />
        <mxCell id="c1tlYQ7k55od8m6h_Xid-1" parent="c1tlYQ7k55od8m6h_Xid-0" />
      </root>
    </mxGraphModel>
  </diagram>
</mxfile>
